# xmcd
#
# Track frame offsets:
#	150
#	20013
#	49808
#	70776
#	109402
#	122642
#	134780
#	168990
#	202097
#	215337
#	249326
#	281097
#
# Disc length: 4147 seconds
#
# Revision: 1
# Processed by: cddbd v1.5.2PL0 Copyright (c) Steve Scherf et al.
# Submitted via: EasyCDDAExtractor 12.0.1.1
#
DISCID=bd10310c
DTITLE=Various Artist - The of Soubd Armada (mixed by EISandro)
DYEAR=2006
DGENRE=Trance
TTITLE0=DJ Rooster and Sammy Perakta pr PRCD Funk - Porto Rican,Cuban,Dominican 
TTITLE0=Funk (Mischa Daniels Remix)
TTITLE1=Mischa Daniels ft. Aisata - So Strong (16 bit Lolita`s Remix)
TTITLE2=Perry O`Neil - Get Out Of My Sofa
TTITLE3=Not Farris - Love Is Alive (Harry Lemon Remix)
TTITLE4=Jelissimo and Tim J - Walk My Talk
TTITLE5=Matthew Dekay vs Proluctors - The Deep Show (Dj Remy Remix)
TTITLE6=Bennett and Soarez - Light Of Hope
TTITLE7=Hammer and Bennett - Language (Elevation Remix)
TTITLE8=DJ Remy - Crackdown
TTITLE9=Matthew Dekay - Clearing The Mind
TTITLE10=Markus Schulz and Departure with Gabriel and Dresden - Without You Near (
TTITLE10=Gabriel and Dresden Mix)
TTITLE11=Armin van Buuren feat Nadia Ali - Who Is Watching (Dj Remy and Roland K
TTITLE11=linkenberg Remix)
EXTD=
EXTT0=
EXTT1=
EXTT2=
EXTT3=
EXTT4=
EXTT5=
EXTT6=
EXTT7=
EXTT8=
EXTT9=
EXTT10=
EXTT11=
PLAYORDER=
